<svg xmlns="http://www.w3.org/2000/svg" width="32" height="32" viewBox="0 0 32 32">
  <rect width="32" height="32" rx="8" fill="#252323"/>
  <g transform="translate(6, 6)">
    <path d="m16 16 3-8 3 8c-.87.65-1.92 1-3 1s-2.13-.35-3-1Z" fill="none" stroke="#f5f1ed" stroke-width="1.5" stroke-linecap="round" stroke-linejoin="round" transform="scale(0.83)"/>
    <path d="m2 16 3-8 3 8c-.87.65-1.92 1-3 1s-2.13-.35-3-1Z" fill="none" stroke="#f5f1ed" stroke-width="1.5" stroke-linecap="round" stroke-linejoin="round" transform="scale(0.83)"/>
    <path d="M7 21h10" fill="none" stroke="#f5f1ed" stroke-width="1.5" stroke-linecap="round" stroke-linejoin="round" transform="scale(0.83)"/>
    <path d="M12 3v18" fill="none" stroke="#f5f1ed" stroke-width="1.5" stroke-linecap="round" stroke-linejoin="round" transform="scale(0.83)"/>
    <path d="M3 7h2c2 0 5-1 7-2 2 1 5 2 7 2h2" fill="none" stroke="#f5f1ed" stroke-width="1.5" stroke-linecap="round" stroke-linejoin="round" transform="scale(0.83)"/>
  </g>
</svg>